<?xml version="1.0" encoding="utf-8"?>
<!-- Generator: Adobe Illustrator 24.3.0, SVG Export Plug-In . SVG Version: 6.00 Build 0)  -->
<svg version="1.1" id="Layer_1" xmlns="http://www.w3.org/2000/svg" xmlns:xlink="http://www.w3.org/1999/xlink" x="0px" y="0px"
	 viewBox="0 0 685.4 818" style="enable-background:new 0 0 685.4 818;" xml:space="preserve">
<style type="text/css">
	.st0{fill:none;stroke:#000000;stroke-width:2;stroke-miterlimit:10;}
	.st1{fill:none;}
	.st2{font-family:'AmericanTypewriter-Bold';}
	.st3{font-size:10px;}
	.st4{font-size:8px;}
</style>
<image style="overflow:visible;" width="1124" height="1636" xlink:href="bol.com.png"  transform="matrix(0.5 0 0 0.5 52.465 0)">
</image>
<rect x="10" y="4" class="st0" width="662.4" height="77"/>
<rect x="13.6" y="60.5" class="st1" width="63.6" height="18"/>
<text transform="matrix(1 0 0 1 13.6119 67.2725)" class="st2 st3">Header</text>
<rect x="10" y="87.8" class="st0" width="662.4" height="137.3"/>
<rect x="11.5" y="225.1" class="st0" width="662.4" height="127.4"/>
<rect x="11.5" y="357.3" class="st0" width="662.4" height="108.7"/>
<rect x="10" y="470.9" class="st0" width="662.4" height="154.1"/>
<rect x="9.9" y="629" class="st0" width="662.4" height="128.9"/>
<rect x="52.5" y="31" class="st0" width="562" height="47.5"/>
<rect x="63.9" y="60.5" class="st1" width="63.6" height="18"/>
<text transform="matrix(1 0 0 1 63.949 67.2725)" class="st2 st3">NAV</text>
<rect x="16.3" y="92.9" class="st1" width="63.6" height="18"/>
<text transform="matrix(1 0 0 1 16.2869 99.6502)" class="st2 st3">Section</text>
<rect x="68" y="92.8" class="st0" width="527.1" height="120.7"/>
<rect x="317.1" y="153.5" class="st1" width="40.2" height="18"/>
<text transform="matrix(1 0 0 1 317.0571 160.2009)" class="st2 st3">IMG</text>
<rect x="16.3" y="231.8" class="st1" width="63.6" height="18"/>
<text transform="matrix(1 0 0 1 16.2869 238.4815)" class="st2 st3">Section</text>
<rect x="68" y="266.4" class="st0" width="125.2" height="75.3"/>
<rect x="79.8" y="274.6" class="st1" width="40.2" height="18"/>
<text transform="matrix(1 0 0 1 79.7938 281.2866)" class="st2 st3">IMG</text>
<rect x="68" y="231.3" class="st0" width="125.2" height="34"/>
<rect x="123.7" y="249.8" class="st1" width="40.2" height="18"/>
<text transform="matrix(1 0 0 1 123.6603 256.5352)" class="st2 st3">P</text>
<rect x="61.8" y="34" class="st0" width="539.5" height="20.7"/>
<rect x="65.1" y="36.5" class="st1" width="27.7" height="9"/>
<text transform="matrix(1 0 0 1 65.0825 43.2132)" class="st2 st3">UL</text>
<rect x="130.6" y="38.8" class="st0" width="81.3" height="13.1"/>
<rect x="133" y="41.9" class="st1" width="27.7" height="9"/>
<text transform="matrix(1 0 0 1 133.0324 47.2983)" class="st2 st4">LI</text>
<rect x="55.9" y="484" class="st0" width="99" height="136.7"/>
<rect x="65" y="496.2" class="st0" width="80.7" height="83.4"/>
<rect x="65" y="583.3" class="st0" width="80.7" height="33.5"/>
<rect x="56.4" y="486.2" class="st1" width="63.6" height="18"/>
<text transform="matrix(1 0 0 1 56.3713 492.9661)" class="st2 st3">Section</text>
<rect x="91.3" y="587" class="st1" width="63.6" height="18"/>
<text transform="matrix(1 0 0 1 91.2724 593.7761)" class="st2 st3">H2</text>
<rect x="65.7" y="605" class="st0" width="80.7" height="11.8"/>
<rect x="106.1" y="607.9" class="st1" width="63.6" height="18"/>
<text transform="matrix(1 0 0 1 106.0825 614.597)" class="st2 st3">P</text>
<rect x="70.6" y="502.3" class="st1" width="63.6" height="18"/>
<text transform="matrix(1 0 0 1 70.5595 509.075)" class="st2 st3">img</text>
<rect x="16.3" y="364" class="st1" width="63.6" height="18"/>
<text transform="matrix(1 0 0 1 16.2869 370.7238)" class="st2 st3">Section</text>
<rect x="16.3" y="638.8" class="st1" width="63.6" height="18"/>
<text transform="matrix(1 0 0 1 16.2869 645.4919)" class="st2 st3">Section</text>
<rect x="68" y="634.4" class="st0" width="259.7" height="104.4"/>
<rect x="333.5" y="633.9" class="st0" width="259.7" height="104.4"/>
<rect x="244.2" y="693.2" class="st1" width="63.6" height="18"/>
<text transform="matrix(1 0 0 1 244.2278 699.9583)" class="st2 st3">IMG</text>
<rect x="445.4" y="691.1" class="st1" width="63.6" height="18"/>
<text transform="matrix(1 0 0 1 445.3983 697.8681)" class="st2 st3">IMG</text>
<rect x="68" y="376.3" class="st0" width="59.2" height="59.2"/>
<rect x="68" y="436.3" class="st0" width="59.2" height="15.7"/>
<rect x="60.8" y="370.7" class="st0" width="73.4" height="82.1"/>
<rect x="84.8" y="439.8" class="st1" width="63.6" height="18"/>
<text transform="matrix(1 0 0 1 84.7955 446.5314)" class="st2 st3">p</text>
<rect x="82.8" y="400" class="st1" width="63.6" height="18"/>
<text transform="matrix(1 0 0 1 82.7955 406.7302)" class="st2 st3">img</text>
<rect x="200.1" y="434.8" class="st1" width="63.6" height="18"/>
<text transform="matrix(1 0 0 1 200.1348 441.5402)" class="st2 st3">img</text>
</svg>
